<svg width="24" height="24" viewBox="0 0 24 24" fill="none" xmlns="http://www.w3.org/2000/svg">
<path fill-rule="evenodd" clip-rule="evenodd" d="M10.125 3C10.125 3 11.4215 3 12.6067 3.50129C12.6067 3.50129 13.7509 3.98523 14.6328 4.86719C14.6328 4.86719 15.5148 5.74916 15.9987 6.89333C15.9987 6.89333 16.5 8.07851 16.5 9.375C16.5 9.375 16.5 10.6715 15.9987 11.8567C15.9987 11.8567 15.5148 13.0008 14.6328 13.8828C14.6328 13.8828 13.7509 14.7648 12.6067 15.2487C12.6067 15.2487 11.4215 15.75 10.125 15.75C10.125 15.75 8.82854 15.75 7.64336 15.2487C7.64336 15.2487 6.49919 14.7648 5.61722 13.8828C5.61722 13.8828 4.73526 13.0008 4.25132 11.8567C4.25132 11.8567 3.75003 10.6715 3.75003 9.375C3.75003 9.375 3.75003 8.07851 4.25132 6.89333C4.25132 6.89333 4.73526 5.74916 5.61722 4.86719C5.61722 4.86719 6.49919 3.98523 7.64336 3.50129C7.64336 3.50129 8.82854 3 10.125 3ZM10.125 4.5C10.125 4.5 8.10574 4.5 6.67789 5.92785C6.67789 5.92785 5.25003 7.35571 5.25003 9.375C5.25003 9.375 5.25003 11.3943 6.67789 12.8221C6.67789 12.8221 8.10574 14.25 10.125 14.25C10.125 14.25 12.1443 14.25 13.5722 12.8221C13.5722 12.8221 15 11.3943 15 9.375C15 9.375 15 7.35571 13.5722 5.92785C13.5722 5.92785 12.1443 4.5 10.125 4.5Z" fill="#175389"/>
<path d="M14.2458 16.6625C16.2048 17.576 17.5941 19.2319 17.5941 19.2319C17.7367 19.4019 17.9471 19.5 18.1688 19.5L18.1809 19.4999C18.353 19.4971 18.519 19.4352 18.6509 19.3245C18.8207 19.182 18.9188 18.9717 18.9188 18.75L18.9187 18.7379C18.9159 18.5657 18.854 18.3998 18.7434 18.2679L18.7427 18.2671C17.1397 16.357 14.8797 15.303 14.8797 15.303C12.6192 14.2489 10.125 14.2489 10.125 14.2489C7.63086 14.2489 5.37038 15.303 5.37038 15.303C3.11035 16.357 1.5074 18.2671 1.5074 18.2671L1.50675 18.2679C1.39342 18.403 1.3313 18.5737 1.3313 18.75L1.3313 18.7522C1.33136 18.7733 1.33232 18.7944 1.33416 18.8154C1.3515 19.0135 1.44685 19.1967 1.59923 19.3245C1.7343 19.4379 1.90498 19.5 2.0813 19.5C2.10313 19.5 2.12495 19.499 2.1467 19.4971C2.34485 19.4798 2.528 19.3844 2.65585 19.232C4.04525 17.5761 6.00434 16.6625 6.00434 16.6625C7.96342 15.7489 10.125 15.7489 10.125 15.7489C12.2867 15.7489 14.2458 16.6625 14.2458 16.6625Z" fill="#175389"/>
<path fill-rule="evenodd" clip-rule="evenodd" d="M20.625 10.5C20.625 10.5 21.557 10.5 22.216 11.159C22.216 11.159 22.875 11.818 22.875 12.75C22.875 12.75 22.875 13.682 22.216 14.341C22.216 14.341 21.557 15 20.625 15C20.625 15 19.6931 15 19.034 14.341C19.034 14.341 18.375 13.682 18.375 12.75C18.375 12.75 18.375 11.818 19.034 11.159C19.034 11.159 19.6931 10.5 20.625 10.5ZM20.625 12C20.625 12 20.3144 12 20.0947 12.2197C20.0947 12.2197 19.875 12.4393 19.875 12.75C19.875 12.75 19.875 13.0607 20.0947 13.2803C20.0947 13.2803 20.3144 13.5 20.625 13.5C20.625 13.5 20.9357 13.5 21.1554 13.2803C21.1554 13.2803 21.375 13.0607 21.375 12.75C21.375 12.75 21.375 12.4393 21.1554 12.2197C21.1554 12.2197 20.9357 12 20.625 12Z" fill="#175389"/>
<path d="M20.625 12C21.0392 12 21.375 11.6642 21.375 11.25V10.125C21.375 9.71079 21.0392 9.375 20.625 9.375C20.2108 9.375 19.875 9.71079 19.875 10.125V11.25C19.875 11.6642 20.2108 12 20.625 12Z" fill="#175389"/>
<path d="M17.9788 12.0856C17.8115 11.9882 17.6885 11.8299 17.6352 11.6439L17.6311 11.6288C17.6146 11.5664 17.6063 11.5021 17.6063 11.4375C17.6063 11.3176 17.635 11.1995 17.69 11.093C17.6958 11.0819 17.7019 11.0708 17.7082 11.06C17.8056 10.8928 17.9639 10.7697 18.1499 10.7165L18.165 10.7123C18.2274 10.6958 18.2917 10.6875 18.3563 10.6875C18.4761 10.6875 18.5943 10.7162 18.7007 10.7713C18.7119 10.7771 18.7229 10.7831 18.7338 10.7894L19.6994 11.3519C19.9181 11.4794 20.0578 11.7085 20.0709 11.9614C20.0716 11.9742 20.0719 11.9871 20.0719 12C20.0719 12.1326 20.0367 12.2629 19.9699 12.3775C19.8698 12.5494 19.7055 12.6745 19.5132 12.7252C19.4542 12.7408 19.3935 12.7491 19.3325 12.7499L19.3219 12.75C19.1893 12.75 19.059 12.7148 18.9444 12.6481L17.9788 12.0856Z" fill="#175389"/>
<path d="M19.6994 14.1481C19.7105 14.1416 19.7215 14.1348 19.7323 14.1277C19.8876 14.0262 19.9998 13.8707 20.0471 13.6913L20.0477 13.6889C20.0638 13.6272 20.0719 13.5637 20.0719 13.5C20.0719 13.3674 20.0367 13.2371 19.9699 13.1225C19.9635 13.1114 19.9567 13.1004 19.9496 13.0896C19.8481 12.9343 19.6926 12.8221 19.5132 12.7748L19.5108 12.7742C19.4491 12.7581 19.3856 12.75 19.3219 12.75C19.1893 12.75 19.059 12.7852 18.9444 12.8519L17.9788 13.4144C17.8069 13.5146 17.6818 13.6789 17.6311 13.8712C17.6146 13.9336 17.6063 13.9979 17.6063 14.0625C17.6063 14.0714 17.6064 14.0802 17.6067 14.089C17.6111 14.2126 17.646 14.3332 17.7082 14.44C17.8083 14.6119 17.9726 14.737 18.165 14.7877C18.2274 14.8042 18.2917 14.8125 18.3563 14.8125C18.3651 14.8125 18.374 14.8123 18.3828 14.812C18.5064 14.8077 18.6269 14.7728 18.7338 14.7106L19.6994 14.1481Z" fill="#175389"/>
<path d="M19.875 14.25V15.375C19.875 15.7892 20.2108 16.125 20.625 16.125C21.0392 16.125 21.375 15.7892 21.375 15.375V14.25C21.375 13.8358 21.0392 13.5 20.625 13.5C20.2108 13.5 19.875 13.8358 19.875 14.25Z" fill="#175389"/>
<path d="M21.5506 14.1481C21.3834 14.0507 21.2603 13.8924 21.2071 13.7064L21.203 13.6913C21.1865 13.6289 21.1781 13.5646 21.1781 13.5C21.1781 13.3801 21.2069 13.262 21.2619 13.1555C21.2677 13.1444 21.2738 13.1333 21.2801 13.1225C21.3775 12.9553 21.5357 12.8322 21.7218 12.779L21.7368 12.7748C21.7993 12.7583 21.8636 12.75 21.9281 12.75C22.048 12.75 22.1661 12.7787 22.2726 12.8338C22.2838 12.8396 22.2948 12.8456 22.3057 12.8519L23.2713 13.4144C23.49 13.5419 23.6297 13.771 23.6428 14.0239C23.6434 14.0367 23.6438 14.0496 23.6438 14.0625C23.6438 14.1951 23.6086 14.3254 23.5418 14.44C23.4417 14.6119 23.2774 14.737 23.0851 14.7877C23.0261 14.8033 22.9654 14.8116 22.9044 14.8124L22.8938 14.8125C22.7611 14.8125 22.6309 14.7773 22.5163 14.7106L21.5506 14.1481Z" fill="#175389"/>
<path d="M23.2713 12.0856C23.2824 12.0791 23.2934 12.0723 23.3042 12.0652C23.4595 11.9637 23.5716 11.8082 23.619 11.6288L23.6196 11.6264C23.6356 11.5647 23.6438 11.5012 23.6438 11.4375C23.6438 11.3049 23.6086 11.1746 23.5418 11.06C23.5353 11.0489 23.5286 11.0379 23.5215 11.0271C23.42 10.8718 23.2645 10.7596 23.0851 10.7123L23.0826 10.7117C23.021 10.6956 22.9575 10.6875 22.8938 10.6875C22.7611 10.6875 22.6309 10.7227 22.5163 10.7894L21.5507 11.3519C21.3788 11.4521 21.2537 11.6164 21.203 11.8087C21.1865 11.8711 21.1781 11.9354 21.1781 12C21.1781 12.0089 21.1783 12.0177 21.1786 12.0265C21.183 12.1501 21.2178 12.2707 21.2801 12.3775C21.3802 12.5494 21.5445 12.6745 21.7368 12.7252C21.7993 12.7417 21.8636 12.75 21.9281 12.75C21.937 12.75 21.9458 12.7498 21.9547 12.7495C22.0783 12.7452 22.1988 12.7103 22.3057 12.6481L23.2713 12.0856Z" fill="#175389"/>
</svg>
