<svg width="192" height="56" viewBox="0 0 192 56" fill="none" xmlns="http://www.w3.org/2000/svg">
<rect x="0.5" y="0.5" width="55" height="55" rx="7.5" fill="white" stroke="#E8E8E8"/>
<path fill-rule="evenodd" clip-rule="evenodd" d="M20 29.3333C19.2666 29.3333 18.6666 29.9333 18.6666 30.6667C18.6666 31.4 19.2666 32 20 32C20.7333 32 21.3333 31.4 21.3333 30.6667C21.3333 29.9333 20.7333 29.3333 20 29.3333ZM20 34.6667C19.2666 34.6667 18.6666 35.2667 18.6666 36C18.6666 36.7333 19.2666 37.3333 20 37.3333C20.7333 37.3333 21.3333 36.7333 21.3333 36C21.3333 35.2667 20.7333 34.6667 20 34.6667ZM20 24C19.2666 24 18.6666 24.6 18.6666 25.3333C18.6666 26.0667 19.2666 26.6667 20 26.6667C20.7333 26.6667 21.3333 26.0667 21.3333 25.3333C21.3333 24.6 20.7333 24 20 24ZM16 24.6667C15.6266 24.6667 15.3333 24.96 15.3333 25.3333C15.3333 25.7067 15.6266 26 16 26C16.3733 26 16.6666 25.7067 16.6666 25.3333C16.6666 24.96 16.3733 24.6667 16 24.6667ZM20 18.6667C19.2666 18.6667 18.6666 19.2667 18.6666 20C18.6666 20.7333 19.2666 21.3333 20 21.3333C20.7333 21.3333 21.3333 20.7333 21.3333 20C21.3333 19.2667 20.7333 18.6667 20 18.6667ZM40 26C40.3733 26 40.6666 25.7067 40.6666 25.3333C40.6666 24.96 40.3733 24.6667 40 24.6667C39.6266 24.6667 39.3333 24.96 39.3333 25.3333C39.3333 25.7067 39.6266 26 40 26ZM30.6666 21.3333C31.4 21.3333 32 20.7333 32 20C32 19.2667 31.4 18.6667 30.6666 18.6667C29.9333 18.6667 29.3333 19.2667 29.3333 20C29.3333 20.7333 29.9333 21.3333 30.6666 21.3333ZM30.6666 16.6667C31.04 16.6667 31.3333 16.3733 31.3333 16C31.3333 15.6267 31.04 15.3333 30.6666 15.3333C30.2933 15.3333 30 15.6267 30 16C30 16.3733 30.2933 16.6667 30.6666 16.6667ZM16 30C15.6266 30 15.3333 30.2933 15.3333 30.6667C15.3333 31.04 15.6266 31.3333 16 31.3333C16.3733 31.3333 16.6666 31.04 16.6666 30.6667C16.6666 30.2933 16.3733 30 16 30ZM25.3333 39.3333C24.96 39.3333 24.6666 39.6267 24.6666 40C24.6666 40.3733 24.96 40.6667 25.3333 40.6667C25.7066 40.6667 26 40.3733 26 40C26 39.6267 25.7066 39.3333 25.3333 39.3333ZM25.3333 16.6667C25.7066 16.6667 26 16.3733 26 16C26 15.6267 25.7066 15.3333 25.3333 15.3333C24.96 15.3333 24.6666 15.6267 24.6666 16C24.6666 16.3733 24.96 16.6667 25.3333 16.6667ZM25.3333 21.3333C26.0666 21.3333 26.6666 20.7333 26.6666 20C26.6666 19.2667 26.0666 18.6667 25.3333 18.6667C24.6 18.6667 24 19.2667 24 20C24 20.7333 24.6 21.3333 25.3333 21.3333ZM25.3333 28.6667C24.2266 28.6667 23.3333 29.56 23.3333 30.6667C23.3333 31.7733 24.2266 32.6667 25.3333 32.6667C26.44 32.6667 27.3333 31.7733 27.3333 30.6667C27.3333 29.56 26.44 28.6667 25.3333 28.6667ZM36 29.3333C35.2666 29.3333 34.6666 29.9333 34.6666 30.6667C34.6666 31.4 35.2666 32 36 32C36.7333 32 37.3333 31.4 37.3333 30.6667C37.3333 29.9333 36.7333 29.3333 36 29.3333ZM36 34.6667C35.2666 34.6667 34.6666 35.2667 34.6666 36C34.6666 36.7333 35.2666 37.3333 36 37.3333C36.7333 37.3333 37.3333 36.7333 37.3333 36C37.3333 35.2667 36.7333 34.6667 36 34.6667ZM36 24C35.2666 24 34.6666 24.6 34.6666 25.3333C34.6666 26.0667 35.2666 26.6667 36 26.6667C36.7333 26.6667 37.3333 26.0667 37.3333 25.3333C37.3333 24.6 36.7333 24 36 24ZM36 18.6667C35.2666 18.6667 34.6666 19.2667 34.6666 20C34.6666 20.7333 35.2666 21.3333 36 21.3333C36.7333 21.3333 37.3333 20.7333 37.3333 20C37.3333 19.2667 36.7333 18.6667 36 18.6667ZM40 30C39.6266 30 39.3333 30.2933 39.3333 30.6667C39.3333 31.04 39.6266 31.3333 40 31.3333C40.3733 31.3333 40.6666 31.04 40.6666 30.6667C40.6666 30.2933 40.3733 30 40 30ZM30.6666 34.6667C29.9333 34.6667 29.3333 35.2667 29.3333 36C29.3333 36.7333 29.9333 37.3333 30.6666 37.3333C31.4 37.3333 32 36.7333 32 36C32 35.2667 31.4 34.6667 30.6666 34.6667ZM30.6666 39.3333C30.2933 39.3333 30 39.6267 30 40C30 40.3733 30.2933 40.6667 30.6666 40.6667C31.04 40.6667 31.3333 40.3733 31.3333 40C31.3333 39.6267 31.04 39.3333 30.6666 39.3333ZM25.3333 23.3333C24.2266 23.3333 23.3333 24.2267 23.3333 25.3333C23.3333 26.44 24.2266 27.3333 25.3333 27.3333C26.44 27.3333 27.3333 26.44 27.3333 25.3333C27.3333 24.2267 26.44 23.3333 25.3333 23.3333ZM25.3333 34.6667C24.6 34.6667 24 35.2667 24 36C24 36.7333 24.6 37.3333 25.3333 37.3333C26.0666 37.3333 26.6666 36.7333 26.6666 36C26.6666 35.2667 26.0666 34.6667 25.3333 34.6667ZM30.6666 28.6667C29.56 28.6667 28.6666 29.56 28.6666 30.6667C28.6666 31.7733 29.56 32.6667 30.6666 32.6667C31.7733 32.6667 32.6666 31.7733 32.6666 30.6667C32.6666 29.56 31.7733 28.6667 30.6666 28.6667ZM30.6666 23.3333C29.56 23.3333 28.6666 24.2267 28.6666 25.3333C28.6666 26.44 29.56 27.3333 30.6666 27.3333C31.7733 27.3333 32.6666 26.44 32.6666 25.3333C32.6666 24.2267 31.7733 23.3333 30.6666 23.3333Z" fill="#969696"/>
<g clip-path="url(#clip0_1_395)">
<path d="M81.679 15.1847H79.4631C79.3778 14.7112 79.2192 14.2945 78.9872 13.9347C78.7552 13.5748 78.4711 13.2694 78.1349 13.0185C77.7988 12.7675 77.4223 12.5781 77.0057 12.4503C76.5938 12.3224 76.1558 12.2585 75.6918 12.2585C74.8537 12.2585 74.1032 12.4692 73.4403 12.8906C72.7822 13.312 72.2614 13.9299 71.8778 14.7443C71.4991 15.5587 71.3097 16.553 71.3097 17.7273C71.3097 18.911 71.4991 19.91 71.8778 20.7244C72.2614 21.5388 72.7846 22.1544 73.4474 22.571C74.1103 22.9877 74.8561 23.196 75.6847 23.196C76.1439 23.196 76.5795 23.1345 76.9915 23.0114C77.4081 22.8835 77.7846 22.6965 78.1207 22.4503C78.4569 22.2041 78.741 21.9034 78.973 21.5483C79.2098 21.1884 79.3731 20.7765 79.4631 20.3125L81.679 20.3196C81.5606 21.0346 81.331 21.6927 80.9901 22.294C80.6539 22.8906 80.2206 23.4067 79.6903 23.8423C79.1648 24.2732 78.5634 24.607 77.8864 24.8438C77.2093 25.0805 76.4706 25.1989 75.6705 25.1989C74.411 25.1989 73.2888 24.9006 72.304 24.304C71.3191 23.7027 70.5426 22.8433 69.9744 21.7259C69.411 20.6084 69.1293 19.2756 69.1293 17.7273C69.1293 16.1742 69.4134 14.8414 69.9815 13.7287C70.5497 12.6113 71.3262 11.7543 72.3111 11.1577C73.2959 10.5563 74.4157 10.2557 75.6705 10.2557C76.4422 10.2557 77.1619 10.367 77.8295 10.5895C78.5019 10.8073 79.1056 11.1293 79.6406 11.5554C80.1757 11.9768 80.6184 12.4929 80.9688 13.1037C81.3191 13.7098 81.5559 14.4034 81.679 15.1847ZM88.7298 25.2202C87.707 25.2202 86.8145 24.9858 86.0522 24.517C85.2899 24.0483 84.698 23.3925 84.2766 22.5497C83.8552 21.7069 83.6445 20.7221 83.6445 19.5952C83.6445 18.4635 83.8552 17.474 84.2766 16.6264C84.698 15.7789 85.2899 15.1207 86.0522 14.652C86.8145 14.1832 87.707 13.9489 88.7298 13.9489C89.7525 13.9489 90.645 14.1832 91.4073 14.652C92.1696 15.1207 92.7615 15.7789 93.1829 16.6264C93.6043 17.474 93.815 18.4635 93.815 19.5952C93.815 20.7221 93.6043 21.7069 93.1829 22.5497C92.7615 23.3925 92.1696 24.0483 91.4073 24.517C90.645 24.9858 89.7525 25.2202 88.7298 25.2202ZM88.7369 23.4375C89.3997 23.4375 89.949 23.2623 90.3846 22.9119C90.8202 22.5616 91.1422 22.0952 91.3505 21.5128C91.5636 20.9304 91.6701 20.2888 91.6701 19.5881C91.6701 18.892 91.5636 18.2528 91.3505 17.6705C91.1422 17.0833 90.8202 16.6122 90.3846 16.2571C89.949 15.902 89.3997 15.7244 88.7369 15.7244C88.0692 15.7244 87.5153 15.902 87.0749 16.2571C86.6393 16.6122 86.315 17.0833 86.1019 17.6705C85.8936 18.2528 85.7894 18.892 85.7894 19.5881C85.7894 20.2888 85.8936 20.9304 86.1019 21.5128C86.315 22.0952 86.6393 22.5616 87.0749 22.9119C87.5153 23.2623 88.0692 23.4375 88.7369 23.4375ZM99.3601 25.2415C98.6688 25.2415 98.0438 25.1136 97.4851 24.858C96.9264 24.5975 96.4837 24.2211 96.157 23.7287C95.835 23.2363 95.674 22.6326 95.674 21.9176C95.674 21.3021 95.7924 20.7955 96.0291 20.3977C96.2659 20 96.5855 19.6851 96.9879 19.4531C97.3904 19.2211 97.8402 19.0459 98.3374 18.9276C98.8345 18.8092 99.3411 18.7192 99.8572 18.6577C100.511 18.5819 101.041 18.5204 101.448 18.473C101.855 18.4209 102.151 18.3381 102.336 18.2244C102.521 18.1108 102.613 17.9261 102.613 17.6705V17.6207C102.613 17.0005 102.438 16.5199 102.087 16.179C101.742 15.8381 101.226 15.6676 100.539 15.6676C99.8241 15.6676 99.2607 15.8262 98.8487 16.1435C98.4415 16.456 98.1598 16.804 98.0036 17.1875L96.0078 16.733C96.2446 16.0701 96.5902 15.535 97.0447 15.1278C97.504 14.7159 98.032 14.4176 98.6286 14.233C99.2251 14.0436 99.8525 13.9489 100.511 13.9489C100.946 13.9489 101.408 14.0009 101.896 14.1051C102.388 14.2045 102.847 14.3892 103.273 14.6591C103.704 14.929 104.057 15.3149 104.332 15.8168C104.606 16.3139 104.744 16.9602 104.744 17.7557V25H102.67V23.5085H102.585C102.447 23.7831 102.241 24.053 101.967 24.3182C101.692 24.5833 101.339 24.8035 100.908 24.9787C100.478 25.1539 99.9614 25.2415 99.3601 25.2415ZM99.8217 23.5369C100.409 23.5369 100.911 23.4209 101.327 23.1889C101.749 22.9569 102.068 22.6539 102.286 22.2798C102.509 21.901 102.62 21.4962 102.62 21.0653V19.6591C102.544 19.7348 102.397 19.8059 102.18 19.8722C101.967 19.9337 101.723 19.9882 101.448 20.0355C101.174 20.0781 100.906 20.1184 100.646 20.1562C100.385 20.1894 100.167 20.2178 99.9922 20.2415C99.5803 20.2936 99.2038 20.3812 98.8629 20.5043C98.5268 20.6274 98.2569 20.8049 98.0533 21.0369C97.8544 21.2642 97.755 21.5672 97.755 21.946C97.755 22.4716 97.9491 22.8693 98.3374 23.1392C98.7256 23.4044 99.2204 23.5369 99.8217 23.5369ZM112.167 25.2202C111.111 25.2202 110.202 24.9811 109.44 24.5028C108.682 24.0199 108.1 23.3546 107.693 22.5071C107.286 21.6596 107.082 20.6889 107.082 19.5952C107.082 18.4872 107.29 17.5095 107.707 16.6619C108.124 15.8097 108.711 15.1444 109.468 14.6662C110.226 14.188 111.118 13.9489 112.146 13.9489C112.975 13.9489 113.713 14.1027 114.362 14.4105C115.011 14.7135 115.534 15.1397 115.931 15.6889C116.334 16.2382 116.573 16.8797 116.649 17.6136H114.582C114.468 17.1023 114.208 16.6619 113.801 16.2926C113.398 15.9233 112.859 15.7386 112.181 15.7386C111.59 15.7386 111.071 15.8949 110.626 16.2074C110.186 16.5152 109.842 16.9555 109.596 17.5284C109.35 18.0966 109.227 18.7689 109.227 19.5455C109.227 20.3409 109.348 21.0275 109.589 21.6051C109.831 22.1828 110.172 22.6302 110.612 22.9474C111.057 23.2647 111.58 23.4233 112.181 23.4233C112.584 23.4233 112.949 23.3499 113.275 23.2031C113.607 23.0516 113.884 22.8362 114.106 22.5568C114.333 22.2775 114.492 21.9413 114.582 21.5483H116.649C116.573 22.2538 116.343 22.8835 115.96 23.4375C115.576 23.9915 115.063 24.4271 114.419 24.7443C113.779 25.0616 113.029 25.2202 112.167 25.2202ZM121.043 18.5227V25H118.92V10.4545H121.015V15.8665H121.15C121.406 15.2794 121.796 14.813 122.322 14.4673C122.847 14.1217 123.534 13.9489 124.381 13.9489C125.129 13.9489 125.783 14.1027 126.342 14.4105C126.905 14.7183 127.341 15.1776 127.648 15.7884C127.961 16.3944 128.117 17.152 128.117 18.0611V25H125.994V18.3168C125.994 17.5166 125.788 16.8963 125.376 16.456C124.964 16.0109 124.391 15.7884 123.657 15.7884C123.155 15.7884 122.705 15.8949 122.308 16.108C121.915 16.321 121.604 16.6335 121.377 17.0455C121.155 17.4527 121.043 17.9451 121.043 18.5227ZM136.414 25V10.4545H141.599C142.731 10.4545 143.668 10.6605 144.412 11.0724C145.155 11.4844 145.711 12.0478 146.081 12.7628C146.45 13.473 146.635 14.2732 146.635 15.1634C146.635 16.0582 146.448 16.8632 146.074 17.5781C145.704 18.2884 145.145 18.8518 144.397 19.2685C143.654 19.6804 142.719 19.8864 141.592 19.8864H138.027V18.0256H141.393C142.108 18.0256 142.688 17.9025 143.133 17.6562C143.578 17.4053 143.905 17.0644 144.113 16.6335C144.322 16.2027 144.426 15.7126 144.426 15.1634C144.426 14.6141 144.322 14.1264 144.113 13.7003C143.905 13.2741 143.576 12.9403 143.126 12.6989C142.681 12.4574 142.094 12.3366 141.365 12.3366H138.609V25H136.414ZM153.495 25.2202C152.473 25.2202 151.58 24.9858 150.818 24.517C150.056 24.0483 149.464 23.3925 149.042 22.5497C148.621 21.7069 148.41 20.7221 148.41 19.5952C148.41 18.4635 148.621 17.474 149.042 16.6264C149.464 15.7789 150.056 15.1207 150.818 14.652C151.58 14.1832 152.473 13.9489 153.495 13.9489C154.518 13.9489 155.411 14.1832 156.173 14.652C156.935 15.1207 157.527 15.7789 157.949 16.6264C158.37 17.474 158.581 18.4635 158.581 19.5952C158.581 20.7221 158.37 21.7069 157.949 22.5497C157.527 23.3925 156.935 24.0483 156.173 24.517C155.411 24.9858 154.518 25.2202 153.495 25.2202ZM153.502 23.4375C154.165 23.4375 154.715 23.2623 155.15 22.9119C155.586 22.5616 155.908 22.0952 156.116 21.5128C156.329 20.9304 156.436 20.2888 156.436 19.5881C156.436 18.892 156.329 18.2528 156.116 17.6705C155.908 17.0833 155.586 16.6122 155.15 16.2571C154.715 15.902 154.165 15.7244 153.502 15.7244C152.835 15.7244 152.281 15.902 151.841 16.2571C151.405 16.6122 151.081 17.0833 150.868 17.6705C150.659 18.2528 150.555 18.892 150.555 19.5881C150.555 20.2888 150.659 20.9304 150.868 21.5128C151.081 22.0952 151.405 22.5616 151.841 22.9119C152.281 23.2623 152.835 23.4375 153.502 23.4375ZM160.951 25V14.0909H163.004V15.8239H163.117C163.316 15.2367 163.666 14.7751 164.168 14.4389C164.675 14.098 165.248 13.9276 165.887 13.9276C166.02 13.9276 166.176 13.9323 166.356 13.9418C166.54 13.9512 166.685 13.9631 166.789 13.9773V16.0085C166.704 15.9848 166.552 15.9588 166.335 15.9304C166.117 15.8973 165.899 15.8807 165.681 15.8807C165.179 15.8807 164.732 15.9872 164.339 16.2003C163.951 16.4086 163.643 16.6998 163.415 17.0739C163.188 17.4432 163.075 17.8646 163.075 18.3381V25H160.951ZM174.364 14.0909V15.7955H168.405V14.0909H174.364ZM170.003 11.4773H172.126V21.7969C172.126 22.2088 172.188 22.5189 172.311 22.7273C172.434 22.9309 172.593 23.0705 172.787 23.1463C172.986 23.2173 173.201 23.2528 173.433 23.2528C173.604 23.2528 173.753 23.241 173.881 23.2173C174.009 23.1937 174.108 23.1747 174.179 23.1605L174.562 24.9148C174.439 24.9621 174.264 25.0095 174.037 25.0568C173.81 25.1089 173.526 25.1373 173.185 25.142C172.626 25.1515 172.105 25.0521 171.622 24.8438C171.139 24.6354 170.749 24.3134 170.45 23.8778C170.152 23.4422 170.003 22.8954 170.003 22.2372V11.4773ZM179.887 25.2415C179.196 25.2415 178.571 25.1136 178.012 24.858C177.454 24.5975 177.011 24.2211 176.684 23.7287C176.362 23.2363 176.201 22.6326 176.201 21.9176C176.201 21.3021 176.32 20.7955 176.556 20.3977C176.793 20 177.113 19.6851 177.515 19.4531C177.918 19.2211 178.368 19.0459 178.865 18.9276C179.362 18.8092 179.868 18.7192 180.385 18.6577C181.038 18.5819 181.568 18.5204 181.975 18.473C182.383 18.4209 182.679 18.3381 182.863 18.2244C183.048 18.1108 183.14 17.9261 183.14 17.6705V17.6207C183.14 17.0005 182.965 16.5199 182.615 16.179C182.269 15.8381 181.753 15.6676 181.066 15.6676C180.351 15.6676 179.788 15.8262 179.376 16.1435C178.969 16.456 178.687 16.804 178.531 17.1875L176.535 16.733C176.772 16.0701 177.118 15.535 177.572 15.1278C178.031 14.7159 178.559 14.4176 179.156 14.233C179.752 14.0436 180.38 13.9489 181.038 13.9489C181.474 13.9489 181.935 14.0009 182.423 14.1051C182.915 14.2045 183.375 14.3892 183.801 14.6591C184.232 14.929 184.584 15.3149 184.859 15.8168C185.134 16.3139 185.271 16.9602 185.271 17.7557V25H183.197V23.5085H183.112C182.975 23.7831 182.769 24.053 182.494 24.3182C182.219 24.5833 181.867 24.8035 181.436 24.9787C181.005 25.1539 180.489 25.2415 179.887 25.2415ZM180.349 23.5369C180.936 23.5369 181.438 23.4209 181.855 23.1889C182.276 22.9569 182.596 22.6539 182.814 22.2798C183.036 21.901 183.147 21.4962 183.147 21.0653V19.6591C183.072 19.7348 182.925 19.8059 182.707 19.8722C182.494 19.9337 182.25 19.9882 181.975 20.0355C181.701 20.0781 181.433 20.1184 181.173 20.1562C180.913 20.1894 180.695 20.2178 180.52 20.2415C180.108 20.2936 179.731 20.3812 179.39 20.5043C179.054 20.6274 178.784 20.8049 178.581 21.0369C178.382 21.2642 178.282 21.5672 178.282 21.946C178.282 22.4716 178.476 22.8693 178.865 23.1392C179.253 23.4044 179.748 23.5369 180.349 23.5369ZM190.223 10.4545V25H188.099V10.4545H190.223Z" fill="#100F0D"/>
</g>
<path d="M72.0625 47H69.1449V37.5455H72.1918C73.1089 37.5455 73.8937 37.7347 74.5462 38.1133C75.1986 38.4888 75.6987 39.0289 76.0465 39.7337C76.3943 40.4354 76.5682 41.2756 76.5682 42.2543C76.5682 43.2391 76.3928 44.087 76.0419 44.7979C75.6911 45.5058 75.1802 46.0505 74.5092 46.4322C73.8383 46.8107 73.0227 47 72.0625 47ZM70.2898 45.9844H71.9886C72.7704 45.9844 73.4182 45.8336 73.9322 45.532C74.4461 45.2304 74.8293 44.801 75.0817 44.244C75.334 43.6869 75.4602 43.0237 75.4602 42.2543C75.4602 41.491 75.3356 40.8339 75.0863 40.283C74.837 39.729 74.4646 39.3043 73.9691 39.0089C73.4736 38.7103 72.8565 38.5611 72.1179 38.5611H70.2898V45.9844ZM81.3139 47.1477C80.6307 47.1477 80.0413 46.9969 79.5458 46.6953C79.0534 46.3906 78.6733 45.9659 78.4055 45.4212C78.1409 44.8733 78.0085 44.2363 78.0085 43.5099C78.0085 42.7836 78.1409 42.1435 78.4055 41.5895C78.6733 41.0324 79.0457 40.5985 79.5227 40.2876C80.0028 39.9737 80.563 39.8168 81.2031 39.8168C81.5724 39.8168 81.9371 39.8783 82.2972 40.0014C82.6573 40.1245 82.9851 40.3246 83.2805 40.6016C83.576 40.8755 83.8114 41.2386 83.9869 41.6911C84.1623 42.1435 84.25 42.7005 84.25 43.3622V43.8239H78.7841V42.8821H83.142C83.142 42.482 83.062 42.125 82.902 41.8111C82.745 41.4972 82.5204 41.2494 82.228 41.0678C81.9387 40.8862 81.5971 40.7955 81.2031 40.7955C80.7692 40.7955 80.3937 40.9032 80.0767 41.1186C79.7628 41.331 79.5212 41.608 79.3519 41.9496C79.1826 42.2912 79.098 42.6574 79.098 43.0483V43.6761C79.098 44.2116 79.1903 44.6656 79.375 45.038C79.5627 45.4073 79.8228 45.6889 80.1552 45.8828C80.4876 46.0736 80.8738 46.169 81.3139 46.169C81.6001 46.169 81.8587 46.129 82.0895 46.049C82.3234 45.9659 82.525 45.8428 82.6942 45.6797C82.8635 45.5135 82.9943 45.3073 83.0866 45.0611L84.1392 45.3565C84.0284 45.7135 83.8422 46.0275 83.5806 46.2983C83.319 46.5661 82.9959 46.7753 82.6112 46.9261C82.2264 47.0739 81.794 47.1477 81.3139 47.1477ZM90.93 41.4972L89.9513 41.7741C89.8898 41.611 89.799 41.4525 89.679 41.2987C89.562 41.1417 89.402 41.0124 89.1989 40.9109C88.9957 40.8093 88.7357 40.7585 88.4187 40.7585C87.9847 40.7585 87.6231 40.8585 87.3338 41.0586C87.0476 41.2556 86.9045 41.5064 86.9045 41.8111C86.9045 42.0819 87.003 42.2958 87.1999 42.4528C87.3969 42.6097 87.7047 42.7405 88.1232 42.8452L89.1758 43.1037C89.8098 43.2576 90.2822 43.493 90.593 43.81C90.9039 44.1239 91.0593 44.5286 91.0593 45.0241C91.0593 45.4304 90.9424 45.7936 90.7085 46.1136C90.4776 46.4337 90.1545 46.6861 89.739 46.8707C89.3235 47.0554 88.8403 47.1477 88.2894 47.1477C87.5662 47.1477 86.9676 46.9908 86.4936 46.6768C86.0196 46.3629 85.7196 45.9044 85.5934 45.3011L86.6275 45.0426C86.726 45.4242 86.9122 45.7105 87.1861 45.9013C87.4631 46.0921 87.8247 46.1875 88.271 46.1875C88.7788 46.1875 89.1819 46.0798 89.4805 45.8643C89.7821 45.6458 89.9329 45.3842 89.9329 45.0795C89.9329 44.8333 89.8467 44.6271 89.6744 44.4609C89.502 44.2917 89.2373 44.1655 88.8803 44.0824L87.6985 43.8054C87.0491 43.6515 86.5721 43.413 86.2674 43.0898C85.9658 42.7636 85.815 42.3558 85.815 41.8665C85.815 41.4664 85.9273 41.1125 86.152 40.8047C86.3797 40.4969 86.689 40.2553 87.0799 40.0799C87.4738 39.9045 87.9201 39.8168 88.4187 39.8168C89.1204 39.8168 89.6713 39.9706 90.0714 40.2784C90.4746 40.5862 90.7608 40.9924 90.93 41.4972ZM95.58 47.1477C94.9152 47.1477 94.3428 46.9908 93.8627 46.6768C93.3825 46.3629 93.0132 45.9305 92.7547 45.3796C92.4962 44.8287 92.3669 44.1993 92.3669 43.4915C92.3669 42.7713 92.4993 42.1358 92.7639 41.5849C93.0317 41.0309 93.4041 40.5985 93.8811 40.2876C94.3612 39.9737 94.9214 39.8168 95.5615 39.8168C96.0601 39.8168 96.5094 39.9091 96.9095 40.0938C97.3096 40.2784 97.6374 40.5369 97.8928 40.8693C98.1483 41.2017 98.3068 41.5895 98.3683 42.0327H97.2789C97.1958 41.7095 97.0111 41.4233 96.7249 41.174C96.4417 40.9216 96.0601 40.7955 95.58 40.7955C95.1553 40.7955 94.7829 40.9062 94.4628 41.1278C94.1458 41.3464 93.8981 41.6557 93.7195 42.0558C93.5441 42.4528 93.4564 42.919 93.4564 43.4545C93.4564 44.0024 93.5426 44.4794 93.7149 44.8857C93.8904 45.2919 94.1366 45.6074 94.4536 45.832C94.7736 46.0567 95.1491 46.169 95.58 46.169C95.8631 46.169 96.1201 46.1198 96.3509 46.0213C96.5818 45.9228 96.7772 45.7812 96.9372 45.5966C97.0973 45.4119 97.2111 45.1903 97.2789 44.9318H98.3683C98.3068 45.3504 98.1544 45.7274 97.9113 46.0629C97.6713 46.3952 97.3527 46.6599 96.9557 46.8569C96.5618 47.0508 96.1032 47.1477 95.58 47.1477ZM99.961 47V39.9091H101.014V40.9801H101.087C101.217 40.6293 101.451 40.3446 101.789 40.1261C102.128 39.9076 102.509 39.7983 102.934 39.7983C103.014 39.7983 103.114 39.7998 103.234 39.8029C103.354 39.806 103.445 39.8106 103.506 39.8168V40.9247C103.47 40.9155 103.385 40.9016 103.253 40.8832C103.123 40.8616 102.986 40.8509 102.842 40.8509C102.497 40.8509 102.189 40.9232 101.918 41.0678C101.651 41.2094 101.438 41.4064 101.281 41.6587C101.127 41.908 101.051 42.1927 101.051 42.5128V47H99.961ZM104.798 47V39.9091H105.887V47H104.798ZM105.352 38.7273C105.14 38.7273 104.956 38.6549 104.803 38.5103C104.652 38.3656 104.576 38.1918 104.576 37.9886C104.576 37.7855 104.652 37.6116 104.803 37.467C104.956 37.3223 105.14 37.25 105.352 37.25C105.564 37.25 105.746 37.3223 105.897 37.467C106.051 37.6116 106.127 37.7855 106.127 37.9886C106.127 38.1918 106.051 38.3656 105.897 38.5103C105.746 38.6549 105.564 38.7273 105.352 38.7273ZM107.883 49.6591V39.9091H108.935V41.0355H109.065C109.145 40.9124 109.256 40.7554 109.397 40.5646C109.542 40.3707 109.748 40.1984 110.016 40.0476C110.287 39.8937 110.653 39.8168 111.114 39.8168C111.711 39.8168 112.238 39.966 112.693 40.2646C113.149 40.5631 113.504 40.9863 113.76 41.5341C114.015 42.0819 114.143 42.7282 114.143 43.473C114.143 44.224 114.015 44.8749 113.76 45.4258C113.504 45.9736 113.15 46.3983 112.698 46.6999C112.245 46.9985 111.724 47.1477 111.133 47.1477C110.677 47.1477 110.313 47.0723 110.039 46.9215C109.765 46.7676 109.554 46.5937 109.406 46.3999C109.259 46.2029 109.145 46.0398 109.065 45.9105H108.972V49.6591H107.883ZM108.954 43.4545C108.954 43.9901 109.032 44.4625 109.189 44.8718C109.346 45.2781 109.576 45.5966 109.877 45.8274C110.179 46.0552 110.548 46.169 110.985 46.169C111.441 46.169 111.821 46.049 112.125 45.8089C112.433 45.5658 112.664 45.2396 112.818 44.8303C112.975 44.4179 113.053 43.9593 113.053 43.4545C113.053 42.956 112.976 42.5066 112.823 42.1065C112.672 41.7034 112.442 41.3848 112.135 41.1509C111.83 40.9139 111.447 40.7955 110.985 40.7955C110.542 40.7955 110.17 40.9078 109.868 41.1325C109.566 41.354 109.339 41.6649 109.185 42.065C109.031 42.462 108.954 42.9252 108.954 43.4545ZM118.889 39.9091V40.8324H115.214V39.9091H118.889ZM116.285 38.2102H117.374V44.9688C117.374 45.2765 117.419 45.5073 117.508 45.6612C117.601 45.812 117.718 45.9136 117.859 45.9659C118.004 46.0152 118.156 46.0398 118.316 46.0398C118.436 46.0398 118.535 46.0336 118.612 46.0213C118.689 46.0059 118.75 45.9936 118.796 45.9844L119.018 46.9631C118.944 46.9908 118.841 47.0185 118.709 47.0462C118.576 47.0769 118.408 47.0923 118.205 47.0923C117.898 47.0923 117.596 47.0262 117.301 46.8938C117.008 46.7615 116.765 46.5599 116.571 46.2891C116.38 46.0182 116.285 45.6766 116.285 45.2642V38.2102ZM120.527 47V39.9091H121.617V47H120.527ZM121.081 38.7273C120.869 38.7273 120.686 38.6549 120.532 38.5103C120.381 38.3656 120.306 38.1918 120.306 37.9886C120.306 37.7855 120.381 37.6116 120.532 37.467C120.686 37.3223 120.869 37.25 121.081 37.25C121.294 37.25 121.475 37.3223 121.626 37.467C121.78 37.6116 121.857 37.7855 121.857 37.9886C121.857 38.1918 121.78 38.3656 121.626 38.5103C121.475 38.6549 121.294 38.7273 121.081 38.7273ZM126.493 47.1477C125.853 47.1477 125.291 46.9954 124.808 46.6907C124.328 46.386 123.952 45.9598 123.682 45.4119C123.414 44.8641 123.28 44.224 123.28 43.4915C123.28 42.7528 123.414 42.1081 123.682 41.5572C123.952 41.0063 124.328 40.5785 124.808 40.2738C125.291 39.9691 125.853 39.8168 126.493 39.8168C127.133 39.8168 127.693 39.9691 128.173 40.2738C128.657 40.5785 129.032 41.0063 129.3 41.5572C129.571 42.1081 129.706 42.7528 129.706 43.4915C129.706 44.224 129.571 44.8641 129.3 45.4119C129.032 45.9598 128.657 46.386 128.173 46.6907C127.693 46.9954 127.133 47.1477 126.493 47.1477ZM126.493 46.169C126.979 46.169 127.379 46.0444 127.693 45.7951C128.007 45.5458 128.24 45.218 128.39 44.8118C128.541 44.4055 128.617 43.9654 128.617 43.4915C128.617 43.0175 128.541 42.5759 128.39 42.1665C128.24 41.7572 128.007 41.4264 127.693 41.174C127.379 40.9216 126.979 40.7955 126.493 40.7955C126.007 40.7955 125.607 40.9216 125.293 41.174C124.979 41.4264 124.747 41.7572 124.596 42.1665C124.445 42.5759 124.369 43.0175 124.369 43.4915C124.369 43.9654 124.445 44.4055 124.596 44.8118C124.747 45.218 124.979 45.5458 125.293 45.7951C125.607 46.0444 126.007 46.169 126.493 46.169ZM132.459 42.7344V47H131.369V39.9091H132.422V41.017H132.514C132.68 40.657 132.933 40.3677 133.271 40.1491C133.61 39.9276 134.047 39.8168 134.582 39.8168C135.062 39.8168 135.483 39.9152 135.843 40.1122C136.203 40.3061 136.483 40.6016 136.683 40.9986C136.883 41.3925 136.983 41.8911 136.983 42.4943V47H135.893V42.5682C135.893 42.0111 135.749 41.5772 135.459 41.2663C135.17 40.9524 134.773 40.7955 134.268 40.7955C133.921 40.7955 133.61 40.8709 133.336 41.0217C133.065 41.1725 132.851 41.3925 132.694 41.6818C132.537 41.9711 132.459 42.322 132.459 42.7344Z" fill="#969696"/>
<defs>
<clipPath id="clip0_1_395">
<rect x="68" y="4" width="124" height="28" rx="8" fill="white"/>
</clipPath>
</defs>
</svg>
