<svg width="24" height="24" viewBox="0 0 24 24" fill="none" xmlns="http://www.w3.org/2000/svg">
<path d="M20.25 5.25V15.75C20.25 16.1642 20.5858 16.5 21 16.5C21.4142 16.5 21.75 16.1642 21.75 15.75V5.25C21.75 4.62868 21.3107 4.18934 21.3107 4.18934C20.8713 3.75 20.25 3.75 20.25 3.75H3.75C3.12868 3.75 2.68934 4.18934 2.68934 4.18934C2.25 4.62868 2.25 5.25 2.25 5.25V15.75C2.25 16.1642 2.58579 16.5 3 16.5C3.41421 16.5 3.75 16.1642 3.75 15.75V5.25H20.25Z" fill="#175389"/>
<path d="M1.5 19.5H22.5C22.9142 19.5 23.25 19.1642 23.25 18.75C23.25 18.3358 22.9142 18 22.5 18H1.5C1.08579 18 0.75 18.3358 0.75 18.75C0.75 19.1642 1.08579 19.5 1.5 19.5Z" fill="#175389"/>
<path d="M16.5 16.5V18.75C16.5 19.1642 16.8358 19.5 17.25 19.5C17.6642 19.5 18 19.1642 18 18.75V15.75C18 15.3358 17.6642 15 17.25 15H11.25C10.8358 15 10.5 15.3358 10.5 15.75V18.75C10.5 19.1642 10.8358 19.5 11.25 19.5C11.6642 19.5 12 19.1642 12 18.75V16.5H16.5Z" fill="#175389"/>
</svg>
