<svg width="20" height="20" viewBox="0 0 20 20" fill="none" xmlns="http://www.w3.org/2000/svg">
<path fill-rule="evenodd" clip-rule="evenodd" d="M10.625 5.625C10.625 5.625 11.9194 5.625 12.8347 6.54029C12.8347 6.54029 13.75 7.45558 13.75 8.75C13.75 8.75 13.75 10.0444 12.8347 10.9597C12.8347 10.9597 11.9194 11.875 10.625 11.875C10.625 11.875 9.33058 11.875 8.41529 10.9597C8.41529 10.9597 7.5 10.0444 7.5 8.75C7.5 8.75 7.5 7.45558 8.41529 6.54029C8.41529 6.54029 9.33058 5.625 10.625 5.625ZM10.625 6.875C10.625 6.875 9.84835 6.875 9.29918 7.42417C9.29918 7.42417 8.75 7.97335 8.75 8.75C8.75 8.75 8.75 9.52665 9.29918 10.0758C9.29918 10.0758 9.84835 10.625 10.625 10.625C10.625 10.625 11.4017 10.625 11.9508 10.0758C11.9508 10.0758 12.5 9.52665 12.5 8.75C12.5 8.75 12.5 7.97335 11.9508 7.42417C11.9508 7.42417 11.4017 6.875 10.625 6.875Z" fill="#100F0D"/>
<path d="M2.5 9.0625H4.375C4.72018 9.0625 5 8.78268 5 8.4375C5 8.09232 4.72018 7.8125 4.375 7.8125H2.5C2.15482 7.8125 1.875 8.09232 1.875 8.4375C1.875 8.78268 2.15482 9.0625 2.5 9.0625Z" fill="#100F0D"/>
<path d="M2.5 5.9375H4.375C4.72018 5.9375 5 5.65768 5 5.3125C5 4.96732 4.72018 4.6875 4.375 4.6875H2.5C2.15482 4.6875 1.875 4.96732 1.875 5.3125C1.875 5.65768 2.15482 5.9375 2.5 5.9375Z" fill="#100F0D"/>
<path d="M2.5 12.1875H4.375C4.72018 12.1875 5 11.9077 5 11.5625C5 11.2173 4.72018 10.9375 4.375 10.9375H2.5C2.15482 10.9375 1.875 11.2173 1.875 11.5625C1.875 11.9077 2.15482 12.1875 2.5 12.1875Z" fill="#100F0D"/>
<path d="M2.5 15.3125H4.375C4.72018 15.3125 5 15.0327 5 14.6875C5 14.3423 4.72018 14.0625 4.375 14.0625H2.5C2.15482 14.0625 1.875 14.3423 1.875 14.6875C1.875 15.0327 2.15482 15.3125 2.5 15.3125Z" fill="#100F0D"/>
<path d="M12.4418 12.3039C13.2996 12.7328 13.875 13.5 13.875 13.5C13.9745 13.6326 14.1225 13.7203 14.2866 13.7437C14.3159 13.7479 14.3454 13.75 14.375 13.75L14.3771 13.75C14.5116 13.7495 14.6424 13.7057 14.75 13.625C14.9074 13.507 15 13.3217 15 13.125L14.9999 13.1168C14.9982 12.9844 14.9545 12.8559 14.875 12.75C14.1225 11.7467 13.0008 11.1859 13.0008 11.1859C11.8791 10.625 10.625 10.625 10.625 10.625C9.37089 10.625 8.24918 11.1859 8.24918 11.1859C7.12747 11.7467 6.375 12.75 6.375 12.75C6.29386 12.8582 6.25 12.9898 6.25 13.125L6.25002 13.1305C6.25027 13.1582 6.25236 13.1859 6.25628 13.2134C6.27972 13.3775 6.36739 13.5255 6.5 13.625C6.60819 13.7061 6.73977 13.75 6.875 13.75L6.8805 13.75C6.90824 13.7497 6.93593 13.7476 6.96339 13.7437C7.12748 13.7203 7.27554 13.6326 7.375 13.5C7.95042 12.7328 8.80819 12.3039 8.80819 12.3039C9.66597 11.875 10.625 11.875 10.625 11.875C11.584 11.875 12.4418 12.3039 12.4418 12.3039Z" fill="#100F0D"/>
<path fill-rule="evenodd" clip-rule="evenodd" d="M16.25 1.875C16.25 1.875 16.7678 1.875 17.1339 2.24112C17.1339 2.24112 17.5 2.60723 17.5 3.125V16.875C17.5 16.875 17.5 17.3928 17.1339 17.7589C17.1339 17.7589 16.7678 18.125 16.25 18.125H5C5 18.125 4.48223 18.125 4.11612 17.7589C4.11612 17.7589 3.75 17.3928 3.75 16.875V3.125C3.75 3.125 3.75 2.60723 4.11612 2.24112C4.11612 2.24112 4.48223 1.875 5 1.875H16.25ZM16.25 3.125H5V16.875H16.25V3.125Z" fill="#100F0D"/>
</svg>
