<svg width="32" height="40" viewBox="0 0 32 40" fill="none" xmlns="http://www.w3.org/2000/svg">
<path d="M9.19194 17.0581C9.07473 16.9408 8.91576 16.875 8.75 16.875C8.58424 16.875 8.42527 16.9408 8.30806 17.0581C8.19085 17.1753 8.125 17.3342 8.125 17.5C8.125 17.6658 8.19085 17.8247 8.30806 17.9419L14.5581 24.1919C14.8021 24.436 15.1979 24.436 15.4419 24.1919L21.6919 17.9419C21.8092 17.8247 21.875 17.6658 21.875 17.5C21.875 17.3342 21.8092 17.1753 21.6919 17.0581C21.5747 16.9408 21.4158 16.875 21.25 16.875C21.0842 16.875 20.9253 16.9408 20.8081 17.0581L15 22.8661L9.19194 17.0581Z" fill="#100F0D"/>
</svg>
