<svg width="20" height="20" viewBox="0 0 20 20" fill="none" xmlns="http://www.w3.org/2000/svg">
<path fill-rule="evenodd" clip-rule="evenodd" d="M13.125 2.5V1.875C13.125 1.52982 13.4048 1.25 13.75 1.25C14.0952 1.25 14.375 1.52982 14.375 1.875V2.5H16.25C16.25 2.5 16.7678 2.5 17.1339 2.86612C17.1339 2.86612 17.5 3.23223 17.5 3.75V16.25C17.5 16.25 17.5 16.7678 17.1339 17.1339C17.1339 17.1339 16.7678 17.5 16.25 17.5H3.75C3.75 17.5 3.23223 17.5 2.86612 17.1339C2.86612 17.1339 2.5 16.7678 2.5 16.25V3.75C2.5 3.75 2.5 3.23223 2.86612 2.86612C2.86612 2.86612 3.23223 2.5 3.75 2.5H5.625V1.875C5.625 1.52982 5.90482 1.25 6.25 1.25C6.59518 1.25 6.875 1.52982 6.875 1.875V2.5H13.125ZM3.75 7.5V16.25H16.25V7.5H3.75ZM16.25 6.25H3.75V3.75H5.625V4.375C5.625 4.72018 5.90482 5 6.25 5C6.59518 5 6.875 4.72018 6.875 4.375V3.75H13.125V4.375C13.125 4.72018 13.4048 5 13.75 5C14.0952 5 14.375 4.72018 14.375 4.375V3.75H16.25V6.25Z" fill="#100F0D"/>
</svg>
