<svg width="24" height="24" viewBox="0 0 24 24" fill="none" xmlns="http://www.w3.org/2000/svg">
<path d="M9.34283 7.53217C9.20218 7.39152 9.01141 7.3125 8.8125 7.3125C8.61359 7.3125 8.42282 7.39152 8.28217 7.53217C8.14152 7.67282 8.0625 7.86359 8.0625 8.0625C8.0625 8.26141 8.14152 8.45218 8.28217 8.59283L11.6893 12L8.28245 15.4069C8.1418 15.5475 8.0625 15.7386 8.0625 15.9375C8.0625 15.9495 8.06279 15.9615 8.06337 15.9735C8.07232 16.1598 8.15033 16.336 8.28217 16.4678C8.42282 16.6085 8.61359 16.6875 8.8125 16.6875C9.01141 16.6875 9.20218 16.6085 9.34283 16.4678L13.2803 12.5303C13.421 12.3897 13.5 12.1989 13.5 12C13.5 11.8011 13.421 11.6103 13.2803 11.4697L9.34283 7.53217Z" fill="#175389"/>
<path d="M2.25 12.75H12.75C13.1642 12.75 13.5 12.4142 13.5 12C13.5 11.5858 13.1642 11.25 12.75 11.25H2.25C1.83579 11.25 1.5 11.5858 1.5 12C1.5 12.4142 1.83579 12.75 2.25 12.75Z" fill="#175389"/>
<path d="M18 19.5H12.75C12.3358 19.5 12 19.8358 12 20.25C12 20.6642 12.3358 21 12.75 21H18C18.6213 21 19.0607 20.5607 19.0607 20.5607C19.5 20.1213 19.5 19.5 19.5 19.5V4.5C19.5 3.87868 19.0607 3.43934 19.0607 3.43934C18.6213 3 18 3 18 3H12.75C12.3358 3 12 3.33579 12 3.75C12 4.16421 12.3358 4.5 12.75 4.5H18V19.5Z" fill="#175389"/>
</svg>
