<svg width="20" height="20" viewBox="0 0 20 20" fill="none" xmlns="http://www.w3.org/2000/svg">
<path d="M4.19194 7.05806C4.07473 6.94085 3.91576 6.875 3.75 6.875C3.58424 6.875 3.42527 6.94085 3.30806 7.05806C3.19085 7.17527 3.125 7.33424 3.125 7.5C3.125 7.66576 3.19085 7.82473 3.30806 7.94194L9.55806 14.1919C9.80214 14.436 10.1979 14.436 10.4419 14.1919L16.6919 7.94194C16.8092 7.82473 16.875 7.66576 16.875 7.5C16.875 7.33424 16.8092 7.17527 16.6919 7.05806C16.5747 6.94085 16.4158 6.875 16.25 6.875C16.0842 6.875 15.9253 6.94085 15.8081 7.05806L10 12.8661L4.19194 7.05806Z" fill="#100F0D"/>
</svg>
