<svg width="24" height="24" viewBox="0 0 24 24" fill="none" xmlns="http://www.w3.org/2000/svg">
<path d="M9 12.75H15C15.4142 12.75 15.75 12.4142 15.75 12C15.75 11.5858 15.4142 11.25 15 11.25H9C8.58579 11.25 8.25 11.5858 8.25 12C8.25 12.4142 8.58579 12.75 9 12.75Z" fill="#175389"/>
<path d="M9 15.75H15C15.4142 15.75 15.75 15.4142 15.75 15C15.75 14.5858 15.4142 14.25 15 14.25H9C8.58579 14.25 8.25 14.5858 8.25 15C8.25 15.4142 8.58579 15.75 9 15.75Z" fill="#175389"/>
<path fill-rule="evenodd" clip-rule="evenodd" d="M4.18934 3.43934C4.18934 3.43934 4.62868 3 5.25 3H18.75C18.75 3 19.3713 3 19.8107 3.43934C19.8107 3.43934 20.25 3.87868 20.25 4.5V18.75C20.25 18.75 20.25 19.9926 19.3713 20.8713C19.3713 20.8713 18.4926 21.75 17.25 21.75H6.75C6.75 21.75 5.50736 21.75 4.62868 20.8713C4.62868 20.8713 3.75 19.9926 3.75 18.75V4.5C3.75 4.5 3.75 3.87868 4.18934 3.43934ZM5.25 4.5V18.75C5.25 18.75 5.25 19.3713 5.68934 19.8107C5.68934 19.8107 6.12868 20.25 6.75 20.25H17.25C17.25 20.25 17.8713 20.25 18.3107 19.8107C18.3107 19.8107 18.75 19.3713 18.75 18.75V4.5H5.25Z" fill="#175389"/>
<path d="M6.75 2.25V5.25C6.75 5.66421 7.08579 6 7.5 6C7.91421 6 8.25 5.66421 8.25 5.25V2.25C8.25 1.83579 7.91421 1.5 7.5 1.5C7.08579 1.5 6.75 1.83579 6.75 2.25Z" fill="#175389"/>
<path d="M11.25 2.25V5.25C11.25 5.66421 11.5858 6 12 6C12.4142 6 12.75 5.66421 12.75 5.25V2.25C12.75 1.83579 12.4142 1.5 12 1.5C11.5858 1.5 11.25 1.83579 11.25 2.25Z" fill="#175389"/>
<path d="M15.75 2.25V5.25C15.75 5.66421 16.0858 6 16.5 6C16.9142 6 17.25 5.66421 17.25 5.25V2.25C17.25 1.83579 16.9142 1.5 16.5 1.5C16.0858 1.5 15.75 1.83579 15.75 2.25Z" fill="#175389"/>
</svg>
