<svg width="24" height="24" viewBox="0 0 24 24" fill="none" xmlns="http://www.w3.org/2000/svg">
<path fill-rule="evenodd" clip-rule="evenodd" d="M4.51873 10.4999V9.74993C4.51873 9.74993 4.51663 8.25422 5.08988 6.87158C5.08988 6.87158 5.66313 5.48895 6.7237 4.43277C6.7237 4.43277 7.78427 3.37661 9.16928 2.80911C9.16928 2.80911 10.5543 2.24161 12.051 2.24994C12.051 2.24994 13.573 2.26147 14.9588 2.86946C14.9588 2.86946 16.2922 3.45442 17.3186 4.50879C17.3186 4.50879 18.3411 5.55904 18.9018 6.9133C18.9018 6.9133 19.4812 8.31267 19.4812 9.8343V10.4999C19.4812 10.4999 19.4812 14.3903 20.7022 16.4991C20.7022 16.4991 20.9032 16.8474 20.9036 17.2486C20.9036 17.2486 20.9039 17.6498 20.704 17.9976C20.704 17.9976 20.504 18.3455 20.157 18.547C20.157 18.547 19.8101 18.7485 19.4089 18.7499L4.59373 18.7499C4.59373 18.7499 4.18987 18.7485 3.84294 18.547C3.84294 18.547 3.49601 18.3455 3.29602 17.9976C3.29602 17.9976 3.09602 17.6498 3.09637 17.2486C3.09637 17.2486 3.09673 16.8474 3.29734 16.4999C3.29734 16.4999 4.51873 14.3902 4.51873 10.4999ZM6.01873 10.4999C6.01873 10.4999 6.01873 14.7931 4.59638 17.2499L19.4036 17.2499C19.4036 17.2499 17.9812 14.7925 17.9812 10.4999V9.8343C17.9812 9.8343 17.9812 7.33976 16.2438 5.55513C16.2438 5.55513 14.5046 3.76857 12.0427 3.74992C12.0427 3.74992 10.8457 3.74325 9.73801 4.19711C9.73801 4.19711 8.63035 4.65097 7.78216 5.49564C7.78216 5.49564 6.93397 6.34031 6.47551 7.44607C6.47551 7.44607 6.01705 8.55184 6.01873 9.74993V10.4999Z" fill="#100F0D"/>
<path d="M15.75 18.75V18C15.75 17.5858 15.4142 17.25 15 17.25C14.5858 17.25 14.25 17.5858 14.25 18V18.75C14.25 19.682 13.591 20.341 13.591 20.341C12.932 21 12 21 12 21C11.068 21 10.409 20.341 10.409 20.341C9.74997 19.682 9.74997 18.75 9.74997 18.75V18C9.74997 17.5858 9.41418 17.25 8.99997 17.25C8.58576 17.25 8.24997 17.5858 8.24997 18V18.75C8.24997 20.3033 9.34832 21.4016 9.34832 21.4016C10.4467 22.5 12 22.5 12 22.5C13.5533 22.5 14.6516 21.4017 14.6516 21.4017C15.75 20.3033 15.75 18.75 15.75 18.75Z" fill="#100F0D"/>
</svg>
