<svg width="24" height="24" viewBox="0 0 24 24" fill="none" xmlns="http://www.w3.org/2000/svg">
<path d="M2.25 6V13.5C2.25 13.9142 2.58579 14.25 3 14.25C3.41421 14.25 3.75 13.9142 3.75 13.5V6C3.75 5.58579 3.41421 5.25 3 5.25C2.58579 5.25 2.25 5.58579 2.25 6Z" fill="#175389"/>
<path d="M15.5772 18.1583C17.2509 19.0651 18.2905 20.6597 18.2905 20.6597C18.3991 20.8263 18.5695 20.9429 18.7642 20.9839C18.815 20.9946 18.8668 21 18.9188 21C18.9278 21 18.9368 20.9999 18.9459 20.9995C19.082 20.9946 19.2143 20.9527 19.3284 20.8783C19.5407 20.7399 19.6688 20.5035 19.6688 20.25C19.6688 20.2376 19.6685 20.2251 19.6678 20.2127C19.6612 20.0801 19.6195 19.9516 19.547 19.8404C18.2998 17.9274 16.2918 16.8395 16.2918 16.8395C14.2838 15.7516 12 15.7516 12 15.7516C9.71626 15.7516 7.70828 16.8395 7.70828 16.8395C5.70042 17.9273 4.45316 19.8402 4.45316 19.8402C4.3737 19.9621 4.33127 20.1046 4.33127 20.25L4.33127 20.251C4.33159 20.5041 4.45959 20.74 4.67165 20.8783C4.7935 20.9577 4.93581 21 5.08127 21L5.09116 21C5.13981 20.9993 5.18827 20.994 5.23588 20.9839C5.43052 20.9429 5.6009 20.8263 5.70953 20.6597C6.74915 19.0651 8.42282 18.1583 8.42282 18.1583C10.0965 17.2516 12 17.2516 12 17.2516C13.9035 17.2516 15.5772 18.1583 15.5772 18.1583Z" fill="#175389"/>
<path fill-rule="evenodd" clip-rule="evenodd" d="M12.2372 2.28849L21.2372 5.28849C21.4259 5.35139 21.5819 5.48668 21.6708 5.66459C21.7598 5.8425 21.7744 6.04847 21.7115 6.23717C21.6369 6.46112 21.4611 6.63686 21.2372 6.71151L12.2372 9.71151C12.0832 9.76283 11.9168 9.76283 11.7628 9.71151L2.76283 6.71151C2.57413 6.64861 2.41814 6.51332 2.32918 6.33541C2.24022 6.1575 2.22559 5.95153 2.28849 5.76283C2.36314 5.53888 2.53888 5.36314 2.76283 5.28849L11.7628 2.28849C11.9168 2.23717 12.0832 2.23717 12.2372 2.28849ZM5.37171 6L12 3.79057L18.6283 6L12 8.20943L5.37171 6Z" fill="#175389"/>
<path d="M8.68124 8.21278C8.69129 8.20181 8.701 8.19054 8.71038 8.17899C8.81889 8.04534 8.87812 7.87842 8.87812 7.70627C8.87811 7.4959 8.78977 7.29521 8.63462 7.15314C8.62365 7.1431 8.61239 7.13338 8.60084 7.124C8.46719 7.01549 8.30027 6.95627 8.12811 6.95627C7.91775 6.95627 7.71706 7.04461 7.57499 7.19976C6.37047 8.51539 6.07989 10.2759 6.07989 10.2759C5.7897 12.0363 6.50852 13.6692 6.50852 13.6692C7.22734 15.3021 8.7216 16.277 8.7216 16.277C10.2159 17.2518 12 17.2516 12 17.2516C13.7842 17.2516 15.2784 16.277 15.2784 16.277C16.7726 15.3021 17.4915 13.6692 17.4915 13.6692C18.2103 12.0363 17.9201 10.2759 17.9201 10.2759C17.6299 8.51556 16.425 7.19976 16.425 7.19976C16.4176 7.19165 16.41 7.18371 16.4022 7.17594C16.2615 7.03529 16.0708 6.95627 15.8719 6.95627C15.6844 6.95627 15.5036 7.02651 15.3654 7.15314C15.3573 7.16057 15.3493 7.16817 15.3415 7.17594C15.2089 7.30853 15.1308 7.48598 15.1226 7.67331L15.1225 7.67494C15.1221 7.68538 15.1219 7.69582 15.1219 7.70627C15.1219 7.89378 15.1921 8.07449 15.3187 8.21278C16.2224 9.19963 16.4401 10.5199 16.4401 10.5199C16.6577 11.8402 16.1186 13.0649 16.1186 13.0649C15.5795 14.2896 14.4588 15.0207 14.4588 15.0207C13.3381 15.7518 12 15.7516 12 15.7516C10.6619 15.7516 9.5412 15.0207 9.5412 15.0207C8.42051 14.2896 7.88139 13.0649 7.88139 13.0649C7.34227 11.8402 7.55991 10.5199 7.55991 10.5199C7.77756 9.19963 8.68124 8.21278 8.68124 8.21278Z" fill="#175389"/>
</svg>
