<svg width="24" height="24" viewBox="0 0 24 24" fill="none" xmlns="http://www.w3.org/2000/svg">
<path fill-rule="evenodd" clip-rule="evenodd" d="M7.5 12C7.5 12 9.0533 12 10.1517 13.0983C10.1517 13.0983 11.25 14.1967 11.25 15.75C11.25 15.75 11.25 17.3033 10.1517 18.4016C10.1517 18.4016 9.0533 19.5 7.5 19.5C7.5 19.5 5.9467 19.5 4.84835 18.4016C4.84835 18.4016 3.75 17.3033 3.75 15.75C3.75 15.75 3.75 14.1967 4.84835 13.0983C4.84835 13.0983 5.9467 12 7.5 12ZM7.5 13.5C7.5 13.5 6.56802 13.5 5.90901 14.159C5.90901 14.159 5.25 14.818 5.25 15.75C5.25 15.75 5.25 16.682 5.90901 17.341C5.90901 17.341 6.56802 18 7.5 18C7.5 18 8.43198 18 9.09099 17.341C9.09099 17.341 9.75 16.682 9.75 15.75C9.75 15.75 9.75 14.818 9.09099 14.159C9.09099 14.159 8.43198 13.5 7.5 13.5Z" fill="#175389"/>
<path d="M9.68017 20.0147C10.7095 20.5293 11.4 21.45 11.4 21.45C11.5193 21.6091 11.697 21.7143 11.8939 21.7425C11.9291 21.7475 11.9645 21.75 12 21.75L12.0026 21.75C12.164 21.7494 12.3209 21.6968 12.45 21.6C12.6389 21.4584 12.75 21.2361 12.75 21L12.7499 20.9902C12.7479 20.8313 12.6953 20.6771 12.6 20.55C11.697 19.3461 10.351 18.673 10.351 18.673C9.00493 18 7.5 18 7.5 18C5.99507 18 4.64901 18.673 4.64901 18.673C3.30296 19.3461 2.4 20.55 2.4 20.55C2.30263 20.6798 2.25 20.8377 2.25 21L2.25003 21.0066C2.25032 21.0399 2.25283 21.0731 2.25754 21.1061C2.28567 21.303 2.39087 21.4807 2.55 21.6C2.67982 21.6974 2.83772 21.75 3 21.75L3.0066 21.75C3.03989 21.7497 3.07311 21.7472 3.10607 21.7425C3.30298 21.7143 3.48065 21.6091 3.6 21.45C4.2905 20.5293 5.31983 20.0147 5.31983 20.0147C6.34917 19.5 7.5 19.5 7.5 19.5C8.65083 19.5 9.68017 20.0147 9.68017 20.0147Z" fill="#175389"/>
<path fill-rule="evenodd" clip-rule="evenodd" d="M7.5 2.25C7.5 2.25 9.0533 2.25 10.1517 3.34835C10.1517 3.34835 11.25 4.4467 11.25 6C11.25 6 11.25 7.5533 10.1517 8.65165C10.1517 8.65165 9.0533 9.75 7.5 9.75C7.5 9.75 5.9467 9.75 4.84835 8.65165C4.84835 8.65165 3.75 7.5533 3.75 6C3.75 6 3.75 4.4467 4.84835 3.34835C4.84835 3.34835 5.9467 2.25 7.5 2.25ZM7.5 3.75C7.5 3.75 6.56802 3.75 5.90901 4.40901C5.90901 4.40901 5.25 5.06802 5.25 6C5.25 6 5.25 6.93198 5.90901 7.59099C5.90901 7.59099 6.56802 8.25 7.5 8.25C7.5 8.25 8.43198 8.25 9.09099 7.59099C9.09099 7.59099 9.75 6.93198 9.75 6C9.75 6 9.75 5.06802 9.09099 4.40901C9.09099 4.40901 8.43198 3.75 7.5 3.75Z" fill="#175389"/>
<path d="M9.68017 10.2647C10.7095 10.7793 11.4 11.7 11.4 11.7C11.5193 11.8591 11.697 11.9643 11.8939 11.9925C11.9291 11.9975 11.9645 12 12 12L12.0026 12C12.164 11.9994 12.3209 11.9468 12.45 11.85C12.6389 11.7084 12.75 11.4861 12.75 11.25L12.7499 11.2402C12.7479 11.0813 12.6953 10.9271 12.6 10.8C11.697 9.59605 10.351 8.92303 10.351 8.92303C9.00493 8.25 7.5 8.25 7.5 8.25C5.99507 8.25 4.64901 8.92303 4.64901 8.92303C3.30296 9.59605 2.4 10.8 2.4 10.8C2.30263 10.9298 2.25 11.0877 2.25 11.25L2.25003 11.2566C2.25032 11.2899 2.25283 11.3231 2.25754 11.3561C2.28567 11.553 2.39087 11.7307 2.55 11.85C2.67982 11.9474 2.83772 12 3 12L3.0066 12C3.03989 11.9997 3.07311 11.9972 3.10607 11.9925C3.30298 11.9643 3.48065 11.8591 3.6 11.7C4.2905 10.7793 5.31983 10.2647 5.31983 10.2647C6.34917 9.75 7.5 9.75 7.5 9.75C8.65083 9.75 9.68017 10.2647 9.68017 10.2647Z" fill="#175389"/>
<path fill-rule="evenodd" clip-rule="evenodd" d="M16.5 12C16.5 12 18.0533 12 19.1516 13.0983C19.1516 13.0983 20.25 14.1967 20.25 15.75C20.25 15.75 20.25 17.3033 19.1516 18.4016C19.1516 18.4016 18.0533 19.5 16.5 19.5C16.5 19.5 14.9467 19.5 13.8483 18.4016C13.8483 18.4016 12.75 17.3033 12.75 15.75C12.75 15.75 12.75 14.1967 13.8483 13.0983C13.8483 13.0983 14.9467 12 16.5 12ZM16.5 13.5C16.5 13.5 15.568 13.5 14.909 14.159C14.909 14.159 14.25 14.818 14.25 15.75C14.25 15.75 14.25 16.682 14.909 17.341C14.909 17.341 15.568 18 16.5 18C16.5 18 17.432 18 18.091 17.341C18.091 17.341 18.75 16.682 18.75 15.75C18.75 15.75 18.75 14.818 18.091 14.159C18.091 14.159 17.432 13.5 16.5 13.5Z" fill="#175389"/>
<path d="M18.6802 20.0147C19.7095 20.5293 20.4 21.45 20.4 21.45C20.5193 21.6091 20.697 21.7143 20.8939 21.7425C20.9291 21.7475 20.9645 21.75 21 21.75L21.0026 21.75C21.164 21.7494 21.3209 21.6968 21.45 21.6C21.6389 21.4584 21.75 21.2361 21.75 21L21.7499 20.9902C21.7479 20.8313 21.6953 20.6771 21.6 20.55C20.697 19.3461 19.351 18.673 19.351 18.673C18.0049 18 16.5 18 16.5 18C14.9951 18 13.649 18.673 13.649 18.673C12.303 19.3461 11.4 20.55 11.4 20.55C11.3026 20.6798 11.25 20.8377 11.25 21L11.25 21.0066C11.2503 21.0399 11.2528 21.0731 11.2575 21.1061C11.2857 21.303 11.3909 21.4807 11.55 21.6C11.6798 21.6974 11.8377 21.75 12 21.75L12.0066 21.75C12.0399 21.7497 12.0731 21.7472 12.1061 21.7425C12.303 21.7143 12.4807 21.6091 12.6 21.45C13.2905 20.5293 14.3198 20.0147 14.3198 20.0147C15.3492 19.5 16.5 19.5 16.5 19.5C17.6508 19.5 18.6802 20.0147 18.6802 20.0147Z" fill="#175389"/>
<path fill-rule="evenodd" clip-rule="evenodd" d="M16.5 2.25C16.5 2.25 18.0533 2.25 19.1516 3.34835C19.1516 3.34835 20.25 4.4467 20.25 6C20.25 6 20.25 7.5533 19.1516 8.65165C19.1516 8.65165 18.0533 9.75 16.5 9.75C16.5 9.75 14.9467 9.75 13.8483 8.65165C13.8483 8.65165 12.75 7.5533 12.75 6C12.75 6 12.75 4.4467 13.8483 3.34835C13.8483 3.34835 14.9467 2.25 16.5 2.25ZM16.5 3.75C16.5 3.75 15.568 3.75 14.909 4.40901C14.909 4.40901 14.25 5.06802 14.25 6C14.25 6 14.25 6.93198 14.909 7.59099C14.909 7.59099 15.568 8.25 16.5 8.25C16.5 8.25 17.432 8.25 18.091 7.59099C18.091 7.59099 18.75 6.93198 18.75 6C18.75 6 18.75 5.06802 18.091 4.40901C18.091 4.40901 17.432 3.75 16.5 3.75Z" fill="#175389"/>
<path d="M18.6802 10.2647C19.7095 10.7793 20.4 11.7 20.4 11.7C20.5193 11.8591 20.697 11.9643 20.8939 11.9925C20.9291 11.9975 20.9645 12 21 12L21.0026 12C21.164 11.9994 21.3209 11.9468 21.45 11.85C21.6389 11.7084 21.75 11.4861 21.75 11.25L21.7499 11.2402C21.7479 11.0813 21.6953 10.9271 21.6 10.8C20.697 9.59605 19.351 8.92303 19.351 8.92303C18.0049 8.25 16.5 8.25 16.5 8.25C14.9951 8.25 13.649 8.92303 13.649 8.92303C12.303 9.59605 11.4 10.8 11.4 10.8C11.3026 10.9298 11.25 11.0877 11.25 11.25L11.25 11.2566C11.2503 11.2899 11.2528 11.3231 11.2575 11.3561C11.2857 11.553 11.3909 11.7307 11.55 11.85C11.6798 11.9474 11.8377 12 12 12L12.0066 12C12.0399 11.9997 12.0731 11.9972 12.1061 11.9925C12.303 11.9643 12.4807 11.8591 12.6 11.7C13.2905 10.7793 14.3198 10.2647 14.3198 10.2647C15.3492 9.75 16.5 9.75 16.5 9.75C17.6508 9.75 18.6802 10.2647 18.6802 10.2647Z" fill="#175389"/>
</svg>
