<svg width="24" height="24" viewBox="0 0 24 24" fill="none" xmlns="http://www.w3.org/2000/svg">
<path d="M18.7276 15.1817C18.7424 15.1224 18.75 15.0611 18.75 15C18.75 14.9877 18.7497 14.9754 18.7491 14.9631C18.743 14.8396 18.7065 14.7195 18.6428 14.6136C18.5403 14.4431 18.3743 14.3203 18.1812 14.2722C18.122 14.2575 18.0611 14.25 18 14.25C17.9913 14.25 17.9827 14.2502 17.974 14.2505C17.6395 14.2621 17.3531 14.4939 17.2722 14.8187L16.0352 19.7856L15.0022 19.1001C15.0008 19.0992 15 19.0987 15 19.0987L15 7.5C15 7.08579 14.6642 6.75 14.25 6.75C13.8358 6.75 13.5 7.08579 13.5 7.5L13.5 19.09C13.4965 19.4724 13.6775 19.8092 13.6775 19.8092C13.8585 20.1461 14.1728 20.3499 14.1728 20.3499L15.2023 21.0331C15.5064 21.2362 15.8698 21.2765 15.8698 21.2765C16.2332 21.3168 16.5744 21.1853 16.5744 21.1853C16.9156 21.0539 17.1581 20.7802 17.1581 20.7802C17.4005 20.5065 17.4903 20.15 17.4903 20.15L18.7276 15.1817Z" fill="#100F0D"/>
<path fill-rule="evenodd" clip-rule="evenodd" d="M14.25 15.75C14.25 15.75 13.9739 15.75 13.4611 15.8094C13.4611 15.8094 12.4057 15.9315 11.2781 16.2382C11.2781 16.2382 7.65401 17.2239 4.70628 19.6935C4.70628 19.6935 4.37175 19.9703 3.94108 20.0256C3.94108 20.0256 3.51041 20.0809 3.11678 19.8976C3.11678 19.8976 2.72316 19.7144 2.48831 19.3491C2.48831 19.3491 2.25346 18.9839 2.25 18.5438L2.25002 3.95035C2.25002 3.95035 2.25346 3.51615 2.48831 3.15093C2.48831 3.15093 2.72316 2.78572 3.11678 2.60243C3.11678 2.60243 3.51041 2.41914 3.94108 2.47445C3.94108 2.47445 4.37175 2.52977 4.70977 2.80951C4.70977 2.80951 7.654 5.27614 11.2781 6.26188C11.2781 6.26188 12.4057 6.56858 13.4611 6.6907C13.4611 6.6907 13.9739 6.75 14.25 6.75L18 6.75004C18 6.75004 19.864 6.75004 21.182 8.06806C21.182 8.06806 22.5 9.38608 22.5 11.25C22.5 11.25 22.5 13.114 21.182 14.432C21.182 14.432 19.864 15.75 18 15.75H14.25ZM14.25 14.25L18 14.25C18 14.25 19.2426 14.25 20.1213 13.3714C20.1213 13.3714 21 12.4927 21 11.25C21 11.25 21 10.0074 20.1213 9.12872C20.1213 9.12872 19.2426 8.25004 18 8.25004H14.25C14.25 8.25004 12.8725 8.25004 10.8844 7.70929C10.8844 7.70929 6.94503 6.6378 3.74998 3.96225L3.75 18.5378C3.75 18.5378 6.94289 15.8629 10.8844 14.7908C10.8844 14.7908 12.8725 14.25 14.25 14.25Z" fill="#100F0D"/>
</svg>
